<svg xmlns="http://www.w3.org/2000/svg" viewBox="0 0 240 240" role="img" aria-label="Meghana Bhat portrait">
  <defs>
    <linearGradient id="g6" x1="0" x2="1" y1="0" y2="1">
      <stop offset="0%" stop-color="#0d5c63" />
      <stop offset="100%" stop-color="#8b2635" />
    </linearGradient>
  </defs>
  <rect width="240" height="240" fill="url(#g6)" />
  <circle cx="120" cy="96" r="52" fill="#efc6ab" />
  <path d="M70 99c1-30 28-43 50-43 23 0 50 13 52 43 1 10-4 21-12 29-6-7-16-11-29-11-14 0-24 4-30 11-9-8-13-19-12-29z" fill="#272938" />
  <path d="M46 226c8-40 34-66 76-66 43 0 69 26 76 66" fill="#fff" opacity="0.24" />
  <text x="120" y="220" text-anchor="middle" fill="#ffffff" font-size="22" font-family="Plus Jakarta Sans, Arial" font-weight="700">MB</text>
</svg>
