<svg xmlns="http://www.w3.org/2000/svg" viewBox="0 0 240 240" role="img" aria-label="Nikhil Patil portrait">
  <defs>
    <linearGradient id="g3" x1="0" x2="1" y1="0" y2="1">
      <stop offset="0%" stop-color="#065f46" />
      <stop offset="100%" stop-color="#1a7a83" />
    </linearGradient>
  </defs>
  <rect width="240" height="240" fill="url(#g3)" />
  <circle cx="120" cy="95" r="52" fill="#e1b493" />
  <path d="M71 96c3-29 29-42 51-42 23 0 49 13 52 42 1 12-4 22-12 30-6-7-16-11-30-11s-24 4-30 11c-8-8-13-18-12-30z" fill="#252533" />
  <path d="M46 226c9-41 35-67 76-67 42 0 68 26 76 67" fill="#fff" opacity="0.25" />
  <text x="120" y="220" text-anchor="middle" fill="#ffffff" font-size="22" font-family="Plus Jakarta Sans, Arial" font-weight="700">NP</text>
</svg>
