<svg xmlns="http://www.w3.org/2000/svg" viewBox="0 0 240 240" role="img" aria-label="Pooja Desai portrait">
  <defs>
    <linearGradient id="g4" x1="0" x2="1" y1="0" y2="1">
      <stop offset="0%" stop-color="#c45a1e" />
      <stop offset="100%" stop-color="#8b2635" />
    </linearGradient>
  </defs>
  <rect width="240" height="240" fill="url(#g4)" />
  <circle cx="120" cy="95" r="53" fill="#f2c8ad" />
  <path d="M72 99c1-30 29-43 49-43 22 0 50 13 51 43 1 11-3 21-11 29-5-7-15-12-29-12s-24 5-30 12c-8-8-12-18-11-29z" fill="#2a2b38" />
  <path d="M44 226c7-40 34-66 77-66 44 0 70 26 77 66" fill="#fff" opacity="0.24" />
  <text x="120" y="220" text-anchor="middle" fill="#ffffff" font-size="22" font-family="Plus Jakarta Sans, Arial" font-weight="700">PD</text>
</svg>
