<svg xmlns="http://www.w3.org/2000/svg" viewBox="0 0 240 240" role="img" aria-label="Sanjay Kulkarni portrait">
  <defs>
    <linearGradient id="g5" x1="0" x2="1" y1="0" y2="1">
      <stop offset="0%" stop-color="#1a2f5e" />
      <stop offset="100%" stop-color="#4f46e5" />
    </linearGradient>
  </defs>
  <rect width="240" height="240" fill="url(#g5)" />
  <circle cx="120" cy="95" r="52" fill="#dcb08f" />
  <path d="M70 98c2-29 29-44 52-44 24 0 50 15 52 44 1 12-4 22-12 31-6-7-16-12-30-12s-24 5-30 12c-8-9-13-19-12-31z" fill="#1f212e" />
  <path d="M44 226c8-41 36-67 78-67 43 0 70 26 78 67" fill="#fff" opacity="0.24" />
  <text x="120" y="220" text-anchor="middle" fill="#ffffff" font-size="22" font-family="Plus Jakarta Sans, Arial" font-weight="700">SK</text>
</svg>
